<svg id="Icon_Set" enable-background="new 0 0 64 64" height="512" viewBox="0 0 64 64" width="512" xmlns="http://www.w3.org/2000/svg"><path d="m31 7c-1.151 0-2.198.405-3.043 1.058-1.375-2.421-3.973-4.058-6.957-4.058s-5.581 1.637-6.957 4.058c-.844-.653-1.892-1.058-3.043-1.058-2.761 0-5 2.239-5 5s2.239 5 5 5c1.151 0 2.198-.405 3.043-1.058 1.376 2.421 3.973 4.058 6.957 4.058s5.581-1.637 6.957-4.058c.845.653 1.892 1.058 3.043 1.058 2.761 0 5-2.239 5-5s-2.238-5-5-5z" fill="#c2c2c2"/><path d="m21 20.5c-2.866 0-5.541-1.46-7.105-3.844-.878.554-1.868.844-2.895.844-3.033 0-5.5-2.468-5.5-5.5s2.467-5.5 5.5-5.5c1.027 0 2.017.29 2.895.844 1.564-2.384 4.239-3.844 7.105-3.844s5.541 1.46 7.105 3.845c.878-.555 1.869-.845 2.895-.845 3.033 0 5.5 2.468 5.5 5.5s-2.467 5.5-5.5 5.5c-1.026 0-2.017-.29-2.895-.845-1.564 2.385-4.239 3.845-7.105 3.845zm-6.957-5.059c.033 0 .065.003.098.01.142.028.265.117.336.243 1.335 2.348 3.834 3.806 6.523 3.806 2.69 0 5.189-1.458 6.522-3.806.071-.126.194-.215.336-.243.143-.028.29.006.404.095.807.624 1.753.954 2.738.954 2.481 0 4.5-2.019 4.5-4.5s-2.019-4.5-4.5-4.5c-.985 0-1.931.33-2.737.954-.116.088-.263.123-.405.095s-.265-.117-.336-.243c-1.333-2.348-3.832-3.806-6.522-3.806-2.689 0-5.188 1.458-6.522 3.806-.071.126-.194.215-.336.243-.143.03-.29-.006-.404-.095-.806-.624-1.753-.954-2.738-.954-2.481 0-4.5 2.019-4.5 4.5s2.019 4.5 4.5 4.5c.985 0 1.932-.33 2.737-.954.089-.068.197-.105.306-.105z" fill="#212a41"/><path d="m30 60h-18c-3.314 0-6-2.686-6-6v-39c0-.552.448-1 1-1h28c.552 0 1 .448 1 1v39c0 3.314-2.686 6-6 6z" fill="#c2c2c2"/><path d="m30 60.5h-18c-3.584 0-6.5-2.916-6.5-6.5v-39c0-.827.673-1.5 1.5-1.5h28c.827 0 1.5.673 1.5 1.5v39c0 3.584-2.916 6.5-6.5 6.5zm-23-46c-.276 0-.5.225-.5.5v39c0 3.032 2.467 5.5 5.5 5.5h18c3.033 0 5.5-2.468 5.5-5.5v-39c0-.275-.224-.5-.5-.5z" fill="#212a41"/><path d="m30 60h-18c-3.314 0-6-2.686-6-6v-30h30v30c0 3.314-2.686 6-6 6z" fill="#db8e11"/><path d="m16 54.5c-.276 0-.5-.224-.5-.5v-30c0-.276.224-.5.5-.5s.5.224.5.5v30c0 .276-.224.5-.5.5z" fill="#bd7000"/><path d="m8 54.5c-.276 0-.5-.224-.5-.5v-30c0-.276.224-.5.5-.5s.5.224.5.5v30c0 .276-.224.5-.5.5z" fill="#f9ac2f"/><path d="m8 24.5c-.276 0-.5-.224-.5-.5v-8c0-.276.224-.5.5-.5s.5.224.5.5v8c0 .276-.224.5-.5.5z" fill="#e0e0e0"/><path d="m16 24.5c-.276 0-.5-.224-.5-.5v-8c0-.276.224-.5.5-.5s.5.224.5.5v8c0 .276-.224.5-.5.5z" fill="#a4a4a4"/><path d="m30 60.5h-18c-3.584 0-6.5-2.916-6.5-6.5v-30c0-.276.224-.5.5-.5h30c.276 0 .5.224.5.5v30c0 3.584-2.916 6.5-6.5 6.5zm-23.5-36v29.5c0 3.032 2.467 5.5 5.5 5.5h18c3.033 0 5.5-2.468 5.5-5.5v-29.5z" fill="#212a41"/><path d="m36 54.5h-30c-.276 0-.5-.224-.5-.5s.224-.5.5-.5h30c.276 0 .5.224.5.5s-.224.5-.5.5z" fill="#212a41"/><path d="m42 60h-18c-3.314 0-6-2.686-6-6v-39c0-.552.448-1 1-1h28c.552 0 1 .448 1 1v39c0 3.314-2.686 6-6 6z" fill="#e0e0e0"/><path d="m42 60.5h-18c-3.584 0-6.5-2.916-6.5-6.5v-39c0-.827.673-1.5 1.5-1.5h28c.827 0 1.5.673 1.5 1.5v39c0 3.584-2.916 6.5-6.5 6.5zm-23-46c-.276 0-.5.225-.5.5v39c0 3.032 2.467 5.5 5.5 5.5h18c3.033 0 5.5-2.468 5.5-5.5v-39c0-.275-.224-.5-.5-.5z" fill="#212a41"/><path d="m52 50h-4v-4h4c1.103 0 2-.897 2-2v-16c0-1.103-.897-2-2-2h-4v-4h4c3.309 0 6 2.691 6 6v16c0 3.309-2.691 6-6 6z" fill="#e0e0e0"/><path d="m52 50.5h-4c-.276 0-.5-.224-.5-.5v-4c0-.276.224-.5.5-.5h4c.827 0 1.5-.673 1.5-1.5v-16c0-.827-.673-1.5-1.5-1.5h-4c-.276 0-.5-.224-.5-.5v-4c0-.276.224-.5.5-.5h4c3.584 0 6.5 2.916 6.5 6.5v16c0 3.584-2.916 6.5-6.5 6.5zm-3.5-1h3.5c3.033 0 5.5-2.468 5.5-5.5v-16c0-3.032-2.467-5.5-5.5-5.5h-3.5v3h3.5c1.378 0 2.5 1.121 2.5 2.5v16c0 1.379-1.122 2.5-2.5 2.5h-3.5z" fill="#212a41"/><path d="m42 60h-18c-3.314 0-6-2.686-6-6v-30h30v30c0 3.314-2.686 6-6 6z" fill="#f9ac2f"/><path d="m26 50h-2c-.552 0-1-.448-1-1v-20c0-.552.448-1 1-1h2c.552 0 1 .448 1 1v20c0 .552-.448 1-1 1z" fill="#db8e11"/><path d="m26 50.5h-2c-.827 0-1.5-.673-1.5-1.5v-20c0-.827.673-1.5 1.5-1.5h2c.827 0 1.5.673 1.5 1.5v20c0 .827-.673 1.5-1.5 1.5zm-2-22c-.276 0-.5.225-.5.5v20c0 .275.224.5.5.5h2c.276 0 .5-.225.5-.5v-20c0-.275-.224-.5-.5-.5z" fill="#212a41"/><path d="m34 50h-2c-.552 0-1-.448-1-1v-20c0-.552.448-1 1-1h2c.552 0 1 .448 1 1v20c0 .552-.448 1-1 1z" fill="#db8e11"/><path d="m34 50.5h-2c-.827 0-1.5-.673-1.5-1.5v-20c0-.827.673-1.5 1.5-1.5h2c.827 0 1.5.673 1.5 1.5v20c0 .827-.673 1.5-1.5 1.5zm-2-22c-.276 0-.5.225-.5.5v20c0 .275.224.5.5.5h2c.276 0 .5-.225.5-.5v-20c0-.275-.224-.5-.5-.5z" fill="#212a41"/><path d="m42 50h-2c-.552 0-1-.448-1-1v-20c0-.552.448-1 1-1h2c.552 0 1 .448 1 1v20c0 .552-.448 1-1 1z" fill="#db8e11"/><path d="m42 50.5h-2c-.827 0-1.5-.673-1.5-1.5v-20c0-.827.673-1.5 1.5-1.5h2c.827 0 1.5.673 1.5 1.5v20c0 .827-.673 1.5-1.5 1.5zm-2-22c-.276 0-.5.225-.5.5v20c0 .275.224.5.5.5h2c.276 0 .5-.225.5-.5v-20c0-.275-.224-.5-.5-.5z" fill="#212a41"/><path d="m46 54.5c-.276 0-.5-.224-.5-.5v-30c0-.276.224-.5.5-.5s.5.224.5.5v30c0 .276-.224.5-.5.5z" fill="#db8e11"/><path d="m20 54.5c-.276 0-.5-.224-.5-.5v-30c0-.276.224-.5.5-.5s.5.224.5.5v30c0 .276-.224.5-.5.5z" fill="#ffca4d"/><path d="m46 24.5c-.276 0-.5-.224-.5-.5v-8c0-.276.224-.5.5-.5s.5.224.5.5v8c0 .276-.224.5-.5.5z" fill="#c2c2c2"/><path d="m20 24.5c-.276 0-.5-.224-.5-.5v-8c0-.276.224-.5.5-.5s.5.224.5.5v8c0 .276-.224.5-.5.5z" fill="#fefefe"/><path d="m43 7c-1.151 0-2.198.405-3.043 1.058-1.375-2.421-3.973-4.058-6.957-4.058s-5.581 1.637-6.957 4.058c-.844-.653-1.892-1.058-3.043-1.058-2.761 0-5 2.239-5 5s2.239 5 5 5c1.151 0 2.198-.405 3.043-1.058 1.376 2.421 3.973 4.058 6.957 4.058s5.581-1.637 6.957-4.058c.845.653 1.892 1.058 3.043 1.058 2.761 0 5-2.239 5-5s-2.238-5-5-5z" fill="#e0e0e0"/><path d="m33 20.5c-2.866 0-5.541-1.46-7.105-3.844-.878.554-1.868.844-2.895.844-3.033 0-5.5-2.468-5.5-5.5s2.467-5.5 5.5-5.5c1.027 0 2.017.29 2.895.844 1.564-2.384 4.239-3.844 7.105-3.844s5.541 1.46 7.105 3.845c.878-.555 1.869-.845 2.895-.845 3.033 0 5.5 2.468 5.5 5.5s-2.467 5.5-5.5 5.5c-1.026 0-2.017-.29-2.895-.845-1.564 2.385-4.239 3.845-7.105 3.845zm-6.957-5.059c.033 0 .065.003.098.01.142.028.265.117.336.243 1.335 2.348 3.834 3.806 6.523 3.806 2.69 0 5.189-1.458 6.522-3.806.071-.126.194-.215.336-.243.143-.028.29.006.404.095.807.624 1.753.954 2.738.954 2.481 0 4.5-2.019 4.5-4.5s-2.019-4.5-4.5-4.5c-.985 0-1.931.33-2.737.954-.116.088-.263.123-.405.095s-.265-.117-.336-.243c-1.333-2.348-3.832-3.806-6.522-3.806-2.689 0-5.188 1.458-6.522 3.806-.071.126-.194.215-.336.243-.143.03-.289-.006-.404-.095-.806-.624-1.753-.954-2.738-.954-2.481 0-4.5 2.019-4.5 4.5s2.019 4.5 4.5 4.5c.985 0 1.932-.33 2.737-.954.089-.068.197-.105.306-.105z" fill="#212a41"/><path d="m23 15.5c-1.93 0-3.5-1.57-3.5-3.5s1.57-3.5 3.5-3.5c.276 0 .5.224.5.5s-.224.5-.5.5c-1.378 0-2.5 1.121-2.5 2.5s1.122 2.5 2.5 2.5c.276 0 .5.224.5.5s-.224.5-.5.5z" fill="#fefefe"/><path d="m43 15.5c-.276 0-.5-.224-.5-.5s.224-.5.5-.5c1.378 0 2.5-1.121 2.5-2.5s-1.122-2.5-2.5-2.5c-.276 0-.5-.224-.5-.5s.224-.5.5-.5c1.93 0 3.5 1.57 3.5 3.5s-1.57 3.5-3.5 3.5z" fill="#c2c2c2"/><g fill="#212a41"><path d="m42 60.5h-18c-3.584 0-6.5-2.916-6.5-6.5v-30c0-.276.224-.5.5-.5h30c.276 0 .5.224.5.5v30c0 3.584-2.916 6.5-6.5 6.5zm-23.5-36v29.5c0 3.032 2.467 5.5 5.5 5.5h18c3.033 0 5.5-2.468 5.5-5.5v-29.5z"/><path d="m48 54.5h-30c-.276 0-.5-.224-.5-.5s.224-.5.5-.5h30c.276 0 .5.224.5.5s-.224.5-.5.5z"/></g></svg>