<svg id="Capa_1" enable-background="new 0 0 512 512" height="512" viewBox="0 0 512 512" width="512" xmlns="http://www.w3.org/2000/svg"><g><g><path d="m502 249.825h-13.6v-17.502c0-14.094-3.709-28.115-10.676-40.369l-15.822-27.855c-4.878-8.574-7.651-18.325-8.02-28.196l-2.646-71.263h3.12c6.172 0 10.978-5.8 9.824-11.868l-5.072-26.67c-2.005-10.311-11.481-17.799-21.893-17.799h-42.555c-10.405 0-20.206 7.765-21.966 18.167l-4.605 26.455c-1.05 6.025 3.742 11.715 9.852 11.715h2.051l-3.631 73.417c-.433 8.696-2.649 17.056-6.584 24.838l-15.54 30.681c-5.781 11.414-8.818 24.141-8.818 36.928v19.322h-17.45v-17.502c0-14.093-3.699-28.117-10.667-40.372l-15.827-27.846c-4.874-8.583-7.645-18.336-8.013-28.204l-2.646-71.263h3.117c6.172 0 10.978-5.8 9.824-11.868l-5.072-26.67c-2.005-10.311-11.481-17.799-21.893-17.799h-42.555c-10.406 0-20.207 7.765-21.967 18.168l-4.604 26.455c-1.05 6.025 3.742 11.715 9.852 11.715h2.043l-3.631 73.426c-.424 8.69-2.639 17.043-6.583 24.829l-15.544 30.688c-5.762 11.4-8.815 24.15-8.815 36.921v19.322h-17.438v-17.502c0-14.094-3.709-28.113-10.667-40.372l-15.827-27.846c-4.883-8.599-7.653-18.349-8.013-28.204l-2.645-71.263h3.113c6.172 0 10.978-5.8 9.824-11.868l-5.071-26.67c-2.014-10.311-11.474-17.8-21.893-17.8h-42.556c-10.406 0-20.206 7.765-21.966 18.168l-4.604 26.455c-1.05 6.025 3.742 11.715 9.852 11.715h2.046l-3.63 73.417c-.434 8.715-2.648 17.071-6.584 24.838l-15.54 30.681c-5.782 11.416-8.819 24.14-8.819 36.928v19.322h-14.57c-5.522 0-10 4.477-10 10v210.422c0 18.445 15.006 33.451 33.45 33.451h182.074c5.522 0 10-4.477 10-10s-4.478-10-10-10h-182.074c-7.416 0-13.45-6.034-13.45-13.451v-200.422h472v200.422c0 7.417-6.034 13.451-13.45 13.451h-175.058c-5.522 0-10 4.477-10 10s4.478 10 10 10h175.058c18.444 0 33.45-15.006 33.45-33.451v-210.422c0-5.523-4.478-10-10-10zm-430.482-219.721c.258-1.05 1.21-1.803 2.298-1.803h42.556c1.083 0 2.01.716 2.286 1.754l2.772 14.583h-52.443zm-20.288 172.507 15.539-30.679c5.211-10.284 8.145-21.348 8.719-32.885l3.679-74.404h31.217l2.673 71.995c.476 13.047 4.144 25.96 10.609 37.347l15.826 27.844c.876 1.544 1.678 3.126 2.415 4.734h-92.485c.561-1.337 1.154-2.66 1.808-3.952zm96.32 47.212h-102.98v-19.32c0-1.315.051-2.629.135-3.94h102.57c.181 1.912.274 3.84.274 5.76v17.5zm84.39-219.719c.258-1.05 1.21-1.803 2.299-1.803h42.555c1.083 0 2.01.716 2.286 1.754l2.773 14.583h-52.443zm-20.29 172.507 15.539-30.679c5.224-10.309 8.157-21.375 8.719-32.885l3.679-74.404h31.217l2.673 72.003c.487 13.063 4.155 25.973 10.609 37.338l15.83 27.851c.876 1.542 1.677 3.121 2.415 4.728h-92.486c.56-1.337 1.152-2.659 1.805-3.952zm96.32 47.212h-102.98v-19.32c0-1.314.051-2.629.136-3.94h102.57c.179 1.912.273 3.839.273 5.76v17.5zm84.394-219.719c.258-1.05 1.21-1.803 2.298-1.803h42.555c1.083 0 2.01.716 2.286 1.754l2.773 14.583h-52.442zm-20.284 172.507 15.543-30.687c5.21-10.304 8.142-21.364 8.715-32.877l3.68-74.404h31.206l2.673 72.003c.488 13.073 4.161 25.985 10.618 37.336l15.821 27.853c.877 1.542 1.678 3.122 2.416 4.728h-92.48c.561-1.337 1.153-2.66 1.808-3.952zm96.319 47.212h-102.979v-19.32c0-1.315.05-2.628.136-3.94h102.569c.184 1.911.274 3.84.274 5.76z"/><path d="m332.529 334.408c0-20.392-16.59-36.982-36.982-36.982h-73.575c-20.393 0-36.982 16.59-36.982 36.982s16.59 36.982 36.982 36.982h73.575c20.392 0 36.982-16.59 36.982-36.982zm-127.54 0c0-9.364 7.618-16.982 16.982-16.982h73.575c9.364 0 16.982 7.618 16.982 16.982s-7.618 16.982-16.982 16.982h-73.575c-9.364 0-16.982-7.618-16.982-16.982z"/><path d="m265.31 485.379c-7.517-5.009-17.661 2.264-15.182 10.984 1.168 4.107 4.861 7.102 9.143 7.323 4.266.22 8.272-2.432 9.808-6.394 1.675-4.319.067-9.33-3.769-11.913z"/></g></g></svg>