<svg id="Capa_1" enable-background="new 0 0 512 512" height="512" viewBox="0 0 512 512" width="512" xmlns="http://www.w3.org/2000/svg"><g><path d="m508.132 333.502c-13.855-10.759-35.798-16.702-65.219-17.663-20.315-.665-43.971 1.247-66.162 5.28-9.085-24.535-26.16-43.96-48.764-55.228-25.431-12.678-54.947-13.682-83.109-2.828-4.641 1.789-7.262 6.715-6.151 11.563.056.244.121.482.178.725-18.835-3.572-38.863-1.666-58.034 5.731-4.639 1.79-7.258 6.715-6.148 11.561.056.244.121.484.178.727-18.827-3.568-38.854-1.663-58.031 5.727-4.643 1.789-7.264 6.72-6.15 11.569.056.242.12.479.177.72-18.826-3.569-38.844-1.663-58.006 5.73-4.639 1.79-7.258 6.715-6.148 11.561 3.508 15.323 9.876 29.057 18.473 40.647-27.706 10.075-50.621 31.414-64.261 60.402-2.117 4.499-.607 9.87 3.544 12.606 20.198 13.314 42.659 20.133 64.919 20.132 7.172 0 14.321-.735 21.369-2.162-1.311 14.395.406 29.459 5.4 44.384 1.384 4.136 5.248 6.828 9.477 6.828.599 0 1.206-.054 1.813-.166 20.22-3.714 38.289-12.55 52.482-25.413.08.244.151.489.233.734 1.384 4.136 5.248 6.828 9.477 6.828.599 0 1.206-.054 1.813-.166 20.222-3.715 38.282-12.547 52.458-25.401.078.239.147.477.227.716 1.382 4.139 5.248 6.834 9.479 6.833.598 0 1.205-.054 1.812-.165 20.237-3.714 38.307-12.546 52.487-25.403.078.239.147.478.227.717 1.382 4.139 5.248 6.834 9.479 6.833.598 0 1.205-.054 1.812-.165 28.887-5.302 53.119-20.818 68.231-43.692 14.02-21.22 19.047-47.012 14.362-73.117 43.014-7.571 93.439-7.012 113.813 8.809 4.362 3.387 10.645 2.597 14.031-1.765 3.384-4.36 2.594-10.642-1.768-14.029zm-389.194.747c9.801 20.398 25.401 36.43 44.612 46.117l-28.163 7.929c-31.107-3.182-56.419-24.416-66.714-55.37 17.106-4.777 34.567-4.332 50.265 1.324zm-23.705 104.332c-23.437 7.23-49.047 4.243-72.026-8.311 13.086-22.74 33.382-38.661 57.126-44.702 9.999 8.567 21.644 15.027 34.44 18.917-8.892 9.993-15.466 21.576-19.54 34.096zm59.671 23.651c-10.432 13.017-25.104 22.518-42.215 27.388-7.333-31.784 3.218-63.114 28.117-82.073l28.149-7.925c-11.352 18.288-16.314 40.101-14.051 62.61zm-22.248-147.323c17.117-4.776 34.579-4.333 50.272 1.317 9.792 20.402 25.393 36.436 44.614 46.123l-28.157 7.927c-31.096-3.183-56.413-24.415-66.729-55.367zm86.237 129.297c-10.411 13.021-25.078 22.525-42.199 27.397-7.333-31.787 3.219-63.119 28.123-82.078l28.145-7.924c-11.352 18.286-16.32 40.097-14.069 62.605zm-22.239-147.316c17.11-4.78 34.574-4.337 50.279 1.319 9.792 20.401 25.391 36.434 44.611 46.122l-28.159 7.928c-31.119-3.188-56.437-24.42-66.731-55.369zm86.244 129.298c-10.412 13.022-25.088 22.526-42.221 27.398-7.313-31.792 3.249-63.128 28.148-82.082l28.143-7.923c-11.353 18.286-16.321 40.098-14.07 62.607zm-22.239-147.314c20.15-5.629 40.601-3.959 58.406 4.917 17.304 8.625 30.569 23.377 38.07 42.073l-29.753 8.377c-31.115-3.19-56.429-24.421-66.723-55.367zm90.344 123.708c-10.534 15.944-26.772 27.447-46.321 32.991-7.316-31.797 3.248-63.135 28.154-82.09l29.709-8.364c3.436 20.642-.582 40.874-11.542 57.463z"/><path d="m16.135 94.186c20.409-15.848 70.827-16.401 113.81-8.81-1.708 9.497-2.142 19.011-1.266 28.347.516 5.499 5.394 9.534 10.89 9.023 5.499-.516 9.538-5.392 9.023-10.89-.672-7.171-.374-14.498.854-21.845l29.735 8.372c24.897 18.959 35.447 50.288 28.118 82.07-6.213-1.763-12.112-4.125-17.615-7.057-4.875-2.597-10.931-.751-13.528 4.124-2.597 4.874-.75 10.931 4.124 13.528 9.865 5.255 20.704 9.002 32.218 11.136 2.515.467 5.155-.064 7.295-1.463 2.182-1.426 3.447-3.498 4.243-5.929 14.192 12.863 32.261 21.699 52.482 25.413 2.51.462 5.144-.07 7.28-1.466 2.181-1.426 3.447-3.498 4.242-5.929 14.195 12.867 32.265 21.703 52.485 25.413 2.51.461 5.143-.071 7.279-1.468 2.181-1.426 3.446-3.498 4.242-5.928 14.195 12.867 32.264 21.703 52.484 25.413 4.84.888 9.733-2.004 11.291-6.67 4.981-14.927 6.69-29.989 5.377-44.38 7.037 1.425 14.175 2.158 21.343 2.158 22.247-.001 44.726-6.816 64.956-20.12 4.16-2.736 5.674-8.115 3.551-12.619-13.664-28.987-36.586-50.325-64.278-60.399 8.61-11.597 14.986-25.341 18.494-40.673 1.11-4.85-1.514-9.778-6.157-11.564-19.206-7.387-39.231-9.285-58.03-5.709.059-.249.125-.494.182-.745 1.11-4.85-1.515-9.778-6.158-11.564-19.204-7.387-39.229-9.285-58.03-5.709.059-.249.125-.494.183-.745 1.11-4.85-1.515-9.778-6.158-11.564-19.202-7.386-39.224-9.284-58.022-5.71.056-.239.12-.474.175-.714 1.11-4.848-1.511-9.774-6.152-11.563-28.15-10.848-57.654-9.849-83.077 2.813-22.614 11.263-39.702 30.692-48.8 55.236-22.172-4.039-45.821-5.953-66.145-5.285-29.41.968-51.348 6.914-65.207 17.676-4.362 3.387-5.152 9.669-1.765 14.032 3.387 4.361 9.67 5.152 14.032 1.764zm255.166 104.287c-17.11-4.87-31.782-14.371-42.215-27.388 2.264-22.508-2.697-44.319-14.048-62.607l28.11 7.914c24.924 18.954 35.487 50.288 28.153 82.081zm64.003 18.019c-17.108-4.868-31.779-14.369-42.214-27.39 2.263-22.51-2.701-44.321-14.058-62.607l28.125 7.918c24.914 18.951 35.475 50.284 28.147 82.079zm63.999 18.016c-17.106-4.869-31.778-14.371-42.211-27.392 2.259-22.508-2.706-44.318-14.058-62.601l28.134 7.921c24.892 18.937 35.449 50.265 28.135 82.072zm89.48-59.354c-23.021 12.551-48.638 15.537-72.04 8.309-4.076-12.525-10.652-24.109-19.546-34.099 12.795-3.893 24.439-10.352 34.439-18.913 23.734 6.036 44.038 21.957 57.147 44.703zm-45.457-97.361c-10.292 30.944-35.615 52.183-66.744 55.389l-28.171-7.931c19.224-9.689 34.827-25.719 44.622-46.11 15.666-5.678 33.135-6.131 50.293-1.348zm-64.004-18.018c-10.292 30.942-35.611 52.18-66.738 55.389l-28.175-7.932c19.222-9.689 34.824-25.718 44.619-46.109 15.666-5.678 33.137-6.129 50.294-1.348zm-64.005-18.017c-10.291 30.939-35.608 52.178-66.731 55.388l-28.167-7.93c19.221-9.689 34.823-25.721 44.616-46.114 15.663-5.674 33.13-6.125 50.282-1.344zm-122.384-13.091c17.798-8.864 38.239-10.529 58.379-4.905-10.292 30.929-35.605 52.161-66.718 55.367l-29.763-8.38c7.512-18.703 20.79-33.459 38.102-42.082z"/><path d="m148.704 144.817c-4.94 2.47-6.942 8.477-4.472 13.416l.028.057c1.749 3.497 5.262 5.507 8.918 5.507 1.508 0 3.041-.342 4.484-1.063 4.94-2.47 6.928-8.505 4.458-13.445-2.47-4.939-8.475-6.942-13.416-4.472z"/></g></svg>