<svg id="Capa_1" enable-background="new 0 0 512.001 512.001" height="512" viewBox="0 0 512.001 512.001" width="512" xmlns="http://www.w3.org/2000/svg"><g><g><path d="m508.146 204.532-246-191.62c-3.613-2.814-8.678-2.814-12.291 0l-246 191.62c-3.369 2.624-4.699 7.099-3.313 11.138 1.388 4.039 5.188 6.751 9.458 6.751h52.025v268.78c0 5.522 4.478 10 10 10h140.862c5.522 0 10-4.478 10-10s-4.478-10-10-10h-130.861v-268.781c0-5.522-4.478-10-10-10h-32.914l216.889-168.944 216.888 168.944h-32.914c-5.522 0-10 4.478-10 10v268.78h-129.1c-5.522 0-10 4.478-10 10s4.478 10 10 10h139.1c5.522 0 10-4.478 10-10v-268.78h52.025c4.271 0 8.07-2.712 9.458-6.751 1.387-4.039.057-8.513-3.312-11.137z"/><path d="m337.723 353.182v-143.445c0-5.522-4.478-10-10-10h-143.445c-5.522 0-10 4.478-10 10v143.445c0 5.522 4.478 10 10 10h143.445c5.523 0 10-4.477 10-10zm-20-81.223h-52.223v-52.223h52.223zm-71.222-52.222v52.223h-52.223v-52.223zm-52.223 71.222h52.223v52.223h-52.223zm71.223 52.223v-52.223h52.223v52.223z"/><path d="m266.23 487.38c-2.066-5.045-8.026-7.486-13.05-5.41-5.04 2.082-7.49 8.014-5.41 13.05 2.08 5.035 8.019 7.502 13.05 5.41 5.023-2.088 7.51-8.013 5.41-13.05z"/></g></g></svg>