<svg id="Capa_1" enable-background="new 0 0 512.001 512.001" height="512" viewBox="0 0 512.001 512.001" width="512" xmlns="http://www.w3.org/2000/svg"><g><path d="m170.592 107.592c-4.772 2.78-6.387 8.902-3.607 13.674 1.857 3.189 5.208 4.968 8.65 4.968 1.709 0 3.441-.438 5.024-1.361 31.788-18.518 63.736-21.901 94.955-10.054 5.164 1.959 10.938-.639 12.897-5.802 1.959-5.164-.638-10.938-5.802-12.897-36.612-13.892-75.382-9.927-112.117 11.472z"/><path d="m105.462 182.388c-4.757-2.807-10.887-1.226-13.694 3.531-21.56 36.543-25.555 75.117-11.553 111.55 1.528 3.976 5.318 6.416 9.336 6.416 1.192 0 2.406-.215 3.585-.668 5.155-1.981 7.728-7.767 5.747-12.922-11.902-30.97-8.501-62.668 10.109-94.212 2.808-4.757 1.227-10.889-3.53-13.695z"/><path d="m496.511 288.662c-25.691-33.127-54.968-52.311-87.425-57.422l35.455-17.942c2.663-1.348 4.585-3.814 5.241-6.727.656-2.912-.024-5.964-1.853-8.323-28.473-36.731-60.747-59.144-96.223-66.933l25.734-18.192c2.413-1.705 3.948-4.391 4.193-7.335.246-2.944-.824-5.846-2.92-7.928-27.004-26.804-56.779-45.336-88.498-55.081-5.281-1.623-10.875 1.342-12.496 6.623-1.622 5.279 1.343 10.874 6.623 12.496 25.271 7.764 49.309 21.851 71.594 41.935l-73.913 52.25c-41.041 28.995-102.094 25.095-136.1-8.694-3.917-3.893-10.25-3.873-14.142.044-1.939 1.951-2.907 4.501-2.907 7.051 0 2.569.985 5.138 2.951 7.091 33.979 33.764 37.903 94.351 8.747 135.062l-26.264 36.701c-.063.09-.132.176-.192.268l-26.182 36.587c-64.631-70.58-66.125-156.268-3.243-231.207 3.309-3.942 3.084-9.752-.519-13.428-21.515-21.95-42.895-46.368-47.373-82.075l-2.24-17.862 36.135-4.472 2.245 17.896c3.04 24.198 19.476 43.624 36.785 61.012 3.647 3.664 9.486 3.944 13.467.646 21.084-17.468 43.462-30.141 66.51-37.666 5.25-1.714 8.117-7.36 6.403-12.61s-7.359-8.116-12.61-6.403c-22.804 7.445-44.912 19.37-65.83 35.494-12.321-13.112-22.916-27.316-24.881-42.964l-3.487-27.8c-.687-5.474-5.686-9.357-11.15-8.68l-55.982 6.931c-2.635.326-5.032 1.687-6.663 3.782s-2.361 4.752-2.031 7.387l3.486 27.8c4.797 38.254 25.046 64.354 46.732 87.17-65.738 84.033-59.053 182.861 18.328 259.752 1.881 1.869 4.418 2.906 7.048 2.906.278 0 .557-.012.837-.035 2.922-.245 5.589-1.761 7.296-4.146l18.408-25.723c7.822 35.32 30.394 67.442 67.404 95.769 1.761 1.348 3.901 2.059 6.079 2.059.733 0 1.472-.081 2.201-.245 2.892-.653 5.346-2.555 6.698-5.194l18.17-35.451c5.104 32.349 24.43 61.518 57.843 87.104 1.761 1.349 3.902 2.061 6.08 2.061.733 0 1.471-.081 2.199-.245 2.893-.652 5.347-2.554 6.699-5.193l32.608-63.611c1.03-2.011 1.964-4.071 2.835-6.16 15.289 13.737 34.249 22.854 53.203 25.184l67.9 8.349c.408.05.815.075 1.221.075 2.638 0 5.189-1.044 7.076-2.935 2.177-2.181 3.228-5.244 2.847-8.301l-8.66-69.518c-2.247-18.003-11.266-36.072-24.937-50.773 2.049-.847 4.068-1.761 6.042-2.76l64.014-32.401c2.663-1.348 4.585-3.815 5.24-6.728.653-2.911-.027-5.963-1.856-8.322zm-202.946-116.245 34.113-24.114c35.376 1.471 67.862 19.193 96.743 52.763l-65.946 33.372c-11.938 6.025-25.722 9.223-39.969 9.321-4.853-2.242-9.865-4.097-14.993-5.477l-.652-5.231c-2.262-18.277-10.267-36.473-22.876-52.373 4.69-2.448 9.234-5.19 13.58-8.261zm-74.141 200.191-33.636 65.628c-33.824-28.69-51.692-60.953-53.195-96.08l24.242-33.876c3.142-4.387 5.974-8.996 8.484-13.773 14.024 10.769 30.393 18.672 47.779 22.123 3.302.655 6.629 1.092 9.968 1.502 1.38 5.374 3.298 10.63 5.701 15.703-.221 13.847-3.432 27.212-9.343 38.773zm13.277-73.441-9.845-1.211c-17.389-2.137-34.734-10.122-49.459-22.634 9.426-28.859 8.534-60.968-2.178-88.67 15.015 5.742 31.314 8.653 47.706 8.652 14.104-.001 28.266-2.18 41.726-6.545 12.454 14.047 20.344 30.443 22.363 46.756l8.844 70.928-58.96-7.251c-.065-.01-.132-.016-.197-.025zm77.407 116.004c-.038.17-.065.342-.094.514-1.25 6.369-3.326 12.483-6.228 18.146l-26.979 52.628c-35.439-30.675-48.272-65.289-39.22-105.47 3.503-6.995 6.212-14.483 8.088-22.28 15.757 17.08 37.372 29.219 60.246 32.02l4.866.598c1.018 8.096.774 16.152-.679 23.844zm-1.752-44.293c-25.11-3.075-48.957-21.065-60.51-43.549-.097-.209-.194-.419-.305-.62-.97-1.932-1.838-3.898-2.62-5.888l57.227 7.038c.408.05.815.075 1.221.075 2.638 0 5.189-1.044 7.077-2.935 2.177-2.181 3.228-5.244 2.846-8.302l-7.038-56.447c25.73 10.238 47.051 35.066 50.234 60.624l7.074 56.789zm119.804 21.243 7.074 56.789-55.171-6.784c-18.104-2.226-36.357-12.455-49.593-27.621.948-6.769 1.172-13.704.649-20.679l42.731 5.252c.407.05.815.075 1.22.075 2.638 0 5.189-1.044 7.076-2.935 2.177-2.181 3.228-5.244 2.847-8.302l-5.273-42.333c2.482.184 4.96.281 7.428.281 4.487 0 8.938-.309 13.32-.912 15.303 12.725 25.56 30.094 27.692 47.169zm-8.079-73.853c-12.757 6.454-27.765 8.856-42.896 6.971l-.852-6.837c-2.69-21.598-14.871-42.34-32.093-57.696 7.872-1.866 15.442-4.561 22.522-8.063 40.461-9.008 75.312 3.708 106.187 38.866z"/><path d="m234.924 55.099h.057c5.523 0 9.972-4.477 9.972-10s-4.506-10-10.029-10-10 4.477-10 10 4.477 10 10 10z"/></g></svg>