<svg height="511pt" viewBox="1 -66 511.9995 511" width="511pt" xmlns="http://www.w3.org/2000/svg"><path d="m185.609375 380.460938c-13.046875 0-25.8125-5.089844-35.40625-14.695313l-132.664063-132.828125c-23.386718-23.410156-23.386718-61.503906 0-84.917969l132.664063-132.824219c14.378906-14.398437 35.882813-18.648437 54.78125-10.828124 18.832031 7.792968 31 25.933593 31 46.207031v120.902343h256.015625c11.046875 0 20 8.957032 20 20.003907s-8.953125 20-20 20h-256.015625c-22.058594 0-40.003906-17.945313-40.003906-40.003907v-120.902343c0-5.992188-4.402344-8.460938-6.292969-9.246094-1.929688-.796875-6.871094-2.183594-11.183594 2.136719l-132.664062 132.824218c-7.816406 7.824219-7.816406 20.554688 0 28.382813l132.664062 132.824219c4.3125 4.316406 9.253906 2.929687 11.179688 2.132812 1.894531-.78125 6.296875-3.25 6.296875-9.242187v-43.03125c0-11.046875 8.953125-20.003907 20-20.003907s20 8.957032 20 20.003907v43.03125c0 20.273437-12.167969 38.410156-31 46.203125-6.285157 2.605468-12.863281 3.871094-19.371094 3.871094zm0 0"/></svg>