<svg xmlns="http://www.w3.org/2000/svg" xmlns:xlink="http://www.w3.org/1999/xlink" version="1.1" style="" xml:space="preserve" width="512.0009765625" height="512.0009765625"><rect id="backgroundrect" width="100%" height="100%" x="0" y="0" fill="none" stroke="none"/>

















<g class="currentLayer" style=""><title>Layer 1</title><g id="svg_1" class="" fill="#ffffff" fill-opacity="1">
	<g id="svg_2" fill="#ffffff" fill-opacity="1">
		<path d="M503.402,228.30020470380782 L273.684,18.98220470380783 c-10.083,-9.189 -25.288,-9.188 -35.367,-0.0010000000000000002 L8.598,228.30120470380783 c-8.077,7.36 -10.745000000000001,18.7 -6.799,28.889 c3.947,10.189 13.557,16.772 24.484,16.772 h36.69 v209.721 c0,8.315 6.742,15.057 15.057,15.057 h125.914 c8.315,0 15.057,-6.741 15.057,-15.057 V356.34720470380785 h74.002 v127.337 c0,8.315 6.742,15.057 15.057,15.057 h125.908 c8.315,0 15.057,-6.741 15.057,-15.057 V273.96220470380786 h36.697 c10.926,0 20.537,-6.584 24.484,-16.772 C514.147,247.00020470380784 511.479,235.66120470380784 503.402,228.30020470380782 z" id="svg_3" fill="#ffffff" fill-opacity="1"/>
	</g>
</g><g id="svg_7">
</g><g id="svg_8">
</g><g id="svg_9">
</g><g id="svg_10">
</g><g id="svg_11">
</g><g id="svg_12">
</g><g id="svg_13">
</g><g id="svg_14">
</g><g id="svg_15">
</g><g id="svg_16">
</g><g id="svg_17">
</g><g id="svg_18">
</g><g id="svg_19">
</g><g id="svg_20">
</g><g id="svg_21">
</g></g></svg>