<svg xmlns="http://www.w3.org/2000/svg" viewBox="0 0 511.95 512"><defs><style>.cls-1{fill:#fff;}</style></defs><g id="Layer_2" data-name="Layer 2"><g id="Layer_1-2" data-name="Layer 1"><path class="cls-1" d="M498.2,222.7l0,0L289.31,13.81a47.13,47.13,0,0,0-66.66,0L13.9,222.55l-.21.22a47.11,47.11,0,0,0,31.37,80.3,13.94,13.94,0,0,0,1.45.07h8.32v153.7A55.23,55.23,0,0,0,110,512h81.71a15,15,0,0,0,15-15V376.5a25.2,25.2,0,0,1,25.17-25.17h48.19a25.2,25.2,0,0,1,25.17,25.17V497a15,15,0,0,0,15,15H402a55.23,55.23,0,0,0,55.17-55.16V303.14h7.72A47.14,47.14,0,0,0,498.2,222.7Z"/></g></g></svg>