<svg xmlns="http://www.w3.org/2000/svg" xmlns:xlink="http://www.w3.org/1999/xlink" version="1.1" x="0px" y="0px" viewBox="0 0 96 120" style="enable-background:new 0 0 96 96;" xml:space="preserve"><g><g><path d="M48,90C24.8,90,6,71.2,6,48S24.8,6,48,6s42,18.8,42,42S71.2,90,48,90z M48,10c-21,0-38,17-38,38    s17,38,38,38s38-17,38-38S69,10,48,10z"/></g><g><g><g><path d="M48,67c-1.1,0-2-0.9-2-2V42c0-1.1,0.9-2,2-2s2,0.9,2,2v23C50,66.1,49.1,67,48,67z"/></g></g><g><circle cx="48" cy="32" r="2"/><path d="M48,35c-1.7,0-3-1.3-3-3s1.3-3,3-3s3,1.3,3,3S49.7,35,48,35z M48,31c-0.6,0-1,0.4-1,1s0.4,1,1,1     s1-0.4,1-1S48.6,31,48,31z"/></g></g></g></svg>