<?xml version="1.0" encoding="utf-8"?>
<!-- Generator: Adobe Illustrator 18.1.1, SVG Export Plug-In . SVG Version: 6.00 Build 0)  -->
<svg version="1.1" id="Layer_1" xmlns="http://www.w3.org/2000/svg" xmlns:xlink="http://www.w3.org/1999/xlink" x="0px" y="0px"
	 viewBox="-700 701.3 16 16" enable-background="new -700 701.3 16 16" xml:space="preserve">
<path fill="#FFFFFF" d="M-684.5,708.3l-1.5-1.4v-3.6c0-0.5-0.5-1-1-1h-1c-0.5,0-1,0.5-1,1v0.6l-2-2c-0.3-0.3-0.5-0.6-1-0.6
	s-0.7,0.3-1,0.6l-6.5,6.4c-0.3,0.3-0.5,0.6-0.5,1c0,0.6,0.4,1,1,1h1v6c0,0.5,0.5,1,1,1h3v-5c0-0.5,0.5-1,1-1h2c0.5,0,1,0.5,1,1v5h3
	c0.5,0,1-0.5,1-1v-6h1c0.6,0,1-0.4,1-1C-684,708.9-684.2,708.6-684.5,708.3z"/>
</svg>
