<?xml version="1.0" encoding="UTF-8"?>
<!DOCTYPE svg PUBLIC "-//W3C//DTD SVG 20010904//EN" "http://www.w3.org/TR/2001/REC-SVG-20010904/DTD/svg10.dtd">
<!-- Created with Sodipodi ("http://www.sodipodi.com/") -->
<svg width="48pt" height="48pt" viewBox="0 0 48 48" xmlns="http://www.w3.org/2000/svg" xmlns:xlink="http://www.w3.org/1999/xlink">
 <metadata xmlns:cc="http://creativecommons.org/ns#" xmlns:dc="http://purl.org/dc/elements/1.1/" xmlns:pdf="http://ns.adobe.com/pdf/1.3/" xmlns:rdf="http://www.w3.org/1999/02/22-rdf-syntax-ns#" xmlns:x="adobe:ns:meta/" xmlns:xap="http://ns.adobe.com/xap/1.0/" xmlns:xapGImg="http://ns.adobe.com/xap/1.0/g/img/" xmlns:xapMM="http://ns.adobe.com/xap/1.0/mm/" xmlns:xlink="http://www.w3.org/1999/xlink">
  <rdf:RDF x:xmptk="XMP toolkit 3.0-29, framework 1.6">
   <rdf:Description rdf:about="uuid:41125f7b-2cea-44c7-b4d1-ee03c1210eca">
    <pdf:Producer>Adobe PDF library 6.66</pdf:Producer>
   </rdf:Description>
   <rdf:Description rdf:about="uuid:41125f7b-2cea-44c7-b4d1-ee03c1210eca">
    <xap:CreateDate>2004-03-18T15:52:10+02:00</xap:CreateDate>
    <xap:ModifyDate>2004-03-29T08:53:05Z</xap:ModifyDate>
    <xap:CreatorTool>Illustrator</xap:CreatorTool>
    <xap:MetadataDate>2004-03-18T15:52:10+01:00</xap:MetadataDate>
   </rdf:Description>
   <rdf:Description rdf:about="uuid:41125f7b-2cea-44c7-b4d1-ee03c1210eca">
    <xapMM:DocumentID>uuid:1c3fa68f-570d-43ef-90f3-d3b39377b187</xapMM:DocumentID>
   </rdf:Description>
   <rdf:Description rdf:about="uuid:41125f7b-2cea-44c7-b4d1-ee03c1210eca">
    <dc:format>image/svg+xml</dc:format>
    <dc:title>
     <rdf:Alt>
      <rdf:li>home.ai</rdf:li>
     </rdf:Alt>
    </dc:title>
   </rdf:Description>
   <cc:Work>
    <dc:format>image/svg+xml</dc:format>
    <dc:type rdf:resource="http://purl.org/dc/dcmitype/StillImage"/>
   </cc:Work>
  </rdf:RDF>
 </metadata>
 <linearGradient id="e" x1="23.53" x2="23.53" y1="37.43" y2="14.11" gradientUnits="userSpaceOnUse">
  <stop stop-color="#824f26" offset=".006"/>
  <stop stop-color="#834f25" offset=".011"/>
  <stop stop-color="#a15715" offset=".167"/>
  <stop stop-color="#b65d09" offset=".321"/>
  <stop stop-color="#c36102" offset=".471"/>
  <stop stop-color="#c76200" offset=".612"/>
 </linearGradient>
 <radialGradient id="f" cx="23.13" cy="15.77" r="17.12" gradientUnits="userSpaceOnUse">
  <stop stop-color="#7c0000" offset="0"/>
  <stop stop-color="#cf0000" offset=".646"/>
  <stop stop-color="#900" offset=".994"/>
 </radialGradient>
 <linearGradient id="a" gradientUnits="userSpaceOnUse">
  <stop stop-color="#ffffde" offset="0"/>
  <stop stop-color="#f93" offset="1"/>
 </linearGradient>
 <linearGradient id="g" x1="23.53" x2="23.53" y1="34.37" y2="3.82" xlink:href="#a"/>
 <linearGradient id="b" gradientUnits="userSpaceOnUse">
  <stop stop-color="#900" offset="0"/>
  <stop stop-color="#f66" offset=".668"/>
  <stop stop-color="#f99" offset="1"/>
 </linearGradient>
 <linearGradient id="h" x1="1.43" x2="44.83" y1="15.77" y2="15.77" xlink:href="#b"/>
 <linearGradient id="i" x1="33.54" x2="12.98" y1="27.69" y2="27.69" gradientTransform="matrix(-1 0 0 1 53.52 0)" gradientUnits="userSpaceOnUse">
  <stop stop-color="#ffffde" offset="0"/>
  <stop stop-color="#fc6" offset="1"/>
 </linearGradient>
 <linearGradient id="j" x1="19.98" x2="40.52" y1="30.92" y2="30.92" gradientUnits="userSpaceOnUse">
  <stop stop-color="#f0cd87" offset="0"/>
  <stop stop-color="#ffa700" offset="1"/>
 </linearGradient>
 <linearGradient id="c" gradientUnits="userSpaceOnUse">
  <stop stop-color="#3e9ade" offset="0"/>
  <stop stop-color="#06c" offset="1"/>
 </linearGradient>
 <linearGradient id="k" x1="26.13" x2="26.13" y1="34.53" y2="25.68" xlink:href="#c"/>
 <linearGradient id="l" x1="27.79" x2="24.27" y1="26.48" y2="33.86" gradientUnits="userSpaceOnUse">
  <stop stop-color="#428aff" offset="0"/>
  <stop stop-color="#57adff" offset=".258"/>
  <stop stop-color="#c9e6ff" offset="1"/>
 </linearGradient>
 <linearGradient id="m" x1="9.56" x2="9.56" y1="12.99" y2="21.15" gradientUnits="userSpaceOnUse">
  <stop stop-color="#cf0000" offset="0"/>
  <stop stop-color="red" offset="1"/>
 </linearGradient>
 <linearGradient id="n" x1="1.43" x2="44.83" y1="16" y2="16" gradientUnits="userSpaceOnUse">
  <stop stop-color="#cf0000" offset="0"/>
  <stop stop-color="#f99" offset="1"/>
 </linearGradient>
 <linearGradient id="o" x1="8.72" x2="8.72" y1="20.09" y2="9.23" gradientUnits="userSpaceOnUse">
  <stop stop-color="red" offset="0"/>
  <stop stop-color="#600000" offset="1"/>
 </linearGradient>
 <linearGradient id="p" x1="13.25" x2="13.25" y1="35.92" y2="3.43" xlink:href="#a"/>
 <linearGradient id="q" x1="13.25" x2="13.25" y1="40.16" y2="33.56" gradientUnits="userSpaceOnUse">
  <stop stop-color="#ffee94" offset="0"/>
  <stop stop-color="#f93" offset="1"/>
 </linearGradient>
 <linearGradient id="r" x1="26.24" x2="26.24" y1="25.15" y2="9.5" gradientUnits="userSpaceOnUse">
  <stop stop-color="#ff6d00" offset="0"/>
  <stop stop-color="#fe6a00" offset=".015"/>
  <stop stop-color="#ed4400" offset=".22"/>
  <stop stop-color="#e02600" offset=".423"/>
  <stop stop-color="#d71100" offset=".623"/>
  <stop stop-color="#d10400" offset=".817"/>
  <stop stop-color="#cf0000" offset="1"/>
 </linearGradient>
 <linearGradient id="s" x1="35.9" x2="35.9" y1="32.73" y2="24.71" xlink:href="#c"/>
 <linearGradient id="d" gradientUnits="userSpaceOnUse">
  <stop stop-color="#57adff" offset="0"/>
  <stop stop-color="#c9e6ff" offset="1"/>
 </linearGradient>
 <linearGradient id="t" x1="37.5" x2="34.29" y1="25.28" y2="32.16" xlink:href="#d"/>
 <linearGradient id="u" x1="8.69" x2="42.78" y1="15.77" y2="15.77" gradientTransform="matrix(-1 0 0 1 53.52 0)" xlink:href="#b"/>
 <linearGradient id="v" x1="12.82" x2="12.82" y1="39.51" y2="26.64" gradientUnits="userSpaceOnUse">
  <stop stop-color="#093" offset="0"/>
  <stop stop-color="#006a00" offset="1"/>
 </linearGradient>
 <linearGradient id="w" x1="12.82" x2="12.82" y1="39.49" y2="26.92" gradientUnits="userSpaceOnUse">
  <stop stop-color="#3c3" offset="0"/>
  <stop stop-color="#093" offset="1"/>
 </linearGradient>
 <linearGradient id="x" x1="26.12" x2="26.12" y1="30.07" y2="26.33" xlink:href="#d"/>
 <linearGradient id="y" x1="35.9" x2="35.9" y1="29.08" y2="25.35" xlink:href="#d"/>
 <path d="m46.327 21.456-10.027-13.021a.9352.9352 0 0 0 -.737-.365l-24.065-.15a.9364.9364 0 0 0 -.756.375l-9.311 12.426a.9379.9379 0 0 0 .696 1.499l4.389.25v14.819l14.167 5.479 21.205-5.334.131-14.137 3.651-.336a.9354.9354 0 0 0 .773-.559.9361.9361 0 0 0 -.116-.946zm-28.653-2.079-5.531-.325c1.158-1.363 2.367-2.785 2.916-3.431.439.63 1.491 2.142 2.615 3.756z" opacity=".2"/>
 <path d="m45.952 21.081-10.027-13.021a.9352.9352 0 0 0 -.737-.365l-24.065-.15a.9364.9364 0 0 0 -.756.375l-9.311 12.426a.9379.9379 0 0 0 .696 1.499l4.389.25v14.819l14.167 5.479 21.205-5.334.131-14.137 3.651-.336a.9354.9354 0 0 0 .773-.559.9361.9361 0 0 0 -.116-.946zm-28.653-2.079-5.531-.325c1.158-1.363 2.367-2.785 2.916-3.431.439.63 1.491 2.142 2.615 3.756z" opacity=".2"/>
 <path d="m5.767 17.971v18.568l14.166 5.48 21.205-5.334.154-16.626z" fill="url(#e)"/>
 <path d="m9.992 7.545-9.311 12.426a.9379.9379 0 0 0 .696 1.499l6.518.373a.937.937 0 0 0 .768-.329l5.646-6.641c1.129 1.622 6.335 9.1 6.335 9.1.193.277.52.429.855.398l23.42-2.158a.9354.9354 0 0 0 .773-.559.9382.9382 0 0 0 -.116-.947l-10.026-13.022a.9352.9352 0 0 0 -.737-.365l-24.065-.15a.9392.9392 0 0 0 -.756.375z" fill="url(#f)"/>
 <path d="m19.981 14.135v5.282l-7.162-9.375-6.302 8.185v15.923l13.464 5.208 20.413-5.134.143-13.616z" fill="url(#g)"/>
 <path d="m44.834 21.277-10.027-13.02-24.065-.149-9.31 12.425 6.517.373 6.434-7.569 7.031 10.099z" fill="url(#h)"/>
 <path d="m40.537 20.608-.143 15.491-20.413 5.134v-27.098z" fill="url(#i)"/>
 <path d="m40.394 34.786-20.413 5.135v1.312l20.413-5.134-.044-15.491.174-.004z" fill="url(#j)"/>
 <path d="m28.477 33.532-.029-4.514v-.001l-.007-1.096-.008-1.413-.005-.826-1.091.156-3.561.514.034 5.419.001.076.016 2.654v.024z" fill="url(#k)"/>
 <path d="m27.428 26.326s-2.374.342-3.086.444c.004.718.039 6.407.043 7.126.894-.19 2.932-.625 3.526-.753l-.041-6.633s.017.021.018.022a2.7558 2.7558 0 0 1 -.017-.271c-.214.032-.443.065-.443.065z" fill="url(#l)"/>
 <path d="m10.742 8.108-9.31 12.425 6.517.373 9.74-11.459z" fill="url(#m)"/>
 <path d="m34.807 8.257-24.065-.149-9.31 12.425 6.517.373 12.721 2.977 23.741-2.356.423-.25z" fill="url(#n)"/>
 <path d="m3.451 20.094h3.557l6.985-9.43-2.413-1.432z" fill="url(#o)" opacity=".9"/>
 <path d="m19.981 41.233-13.464-5.208v-17.798l6.302-8.185 7.162 9.375z" fill="url(#p)"/>
 <path d="m6.517 36.025 13.464 5.208v-1.125l-13.464-5.208z" fill="url(#q)"/>
 <path d="m20.125 22.483s-.179 13.859 1.056 18.449l-1.199.302v-18.311c.091-.283.143-.44.143-.44z" fill="#fff" opacity=".6"/>
 <path d="m20.414 19.108-7.208-9.606-1.829 2.418 8.963 13.23 20.731-2.094.029-2.728-20.686-6.633z" fill="url(#r)" opacity=".5"/>
 <path d="m38.156 31.907-.083-5.982-.016-1.213-1.07.139-3.237.42-.071 5.254-.031 2.209z" fill="url(#s)"/>
 <path d="m37.069 25.34s-2.071.27-2.763.359c-.01.713-.065 4.832-.065 4.832s-.011-.015-.012-.016c.005.059.009.119.009.192 0 .052-.001.108-.002.168 0 0-.014 1.008-.017 1.249.869-.16 2.76-.507 3.368-.619-.01-.706-.082-5.9-.086-6.222-.207.028-.432.057-.432.057z" fill="url(#t)"/>
 <path d="m44.411 21.527.423-.25-10.509-13.016-23.524-.147c-.206.194-.411.39-.58.619l10.45 15.15z" fill="#b50c00"/>
 <path d="m34.807 8.257-24.065-.149 10.672 15.328 23.42-2.159z" fill="url(#u)"/>
 <path d="m15.925 36.66.142-8.768-6.328-1.251-.013.846-.023 1.397-.026 1.554-.009.556-.095 5.873 6.305 2.642z" fill="url(#v)"/>
 <path d="m10.249 27.756-.056 3.426-.089 5.482c.428.18 4.287 1.797 5.262 2.205.013-.748.16-9.811.169-10.407-.576-.114-4.434-.877-5.28-1.044-.003.163-.006.338-.006.338z" fill="url(#w)"/>
 <path d="m6.517 35.215v-7.104c.229 2.56.537 5.123.952 7.522z" fill="#ccc" opacity=".6"/>
 <path d="m40.504 23.657-.11 10.566-.515.13c.133-2.643.407-7.17.625-10.696z" fill="#fff" opacity=".5"/>
 <path d="m27.683 26.456c-.112.017-.225.032-.225.032l.01-.011c-.076.019-.181.036-.355.061 0 0-2.521.363-2.582.372 0 .104.007 1.172.015 2.431.443.38.982.605 1.567.605.593 0 1.141-.233 1.588-.624-.01-1.488-.018-2.861-.018-2.866z" fill="url(#x)"/>
 <path d="m37.316 25.475-.219.028s-2.324.302-2.605.339c-.002.137-.019 1.401-.035 2.583.347.336.766.533 1.218.533.677 0 1.279-.441 1.675-1.13-.017-1.167-.032-2.207-.034-2.353z" fill="url(#y)"/>
 <path d="m0 0h48v48h-48z" fill="none"/>
</svg>