<svg xmlns="http://www.w3.org/2000/svg" xmlns:xlink="http://www.w3.org/1999/xlink" xml:space="preserve" version="1.1" style="shape-rendering:geometricPrecision;text-rendering:geometricPrecision;image-rendering:optimizeQuality;" viewBox="0 0 283 318.75" x="0px" y="0px" fill-rule="evenodd" clip-rule="evenodd">
<defs><style type="text/css">
   
    .fil0 {fill:white}
   
  </style></defs>

  <!-- <text x="0" y="270" fill="#000000" font-size="5px" font-weight="bold" font-family="'Helvetica Neue', Helvetica, Arial-Unicode, Arial, Sans-serif">Created by Justiconnic</text><text x="0" y="275" fill="#000000" font-size="5px" font-weight="bold" font-family="'Helvetica Neue', Helvetica, Arial-Unicode, Arial, Sans-serif">from the Noun Project</text> -->
  <g><path class="fil0" d="M150 3l128 108c9,7 4,22 -8,22l-29 0 0 109c0,7 -6,13 -13,13l-44 0c-7,0 -13,-6 -13,-13l0 -68 -60 0 0 68c0,7 -5,13 -12,13l-45 0c-6,0 -12,-6 -12,-13l0 -109 -29 0c-12,0 -18,-15 -8,-22l128 -108c5,-4 12,-4 17,0z"/></g></svg>