<svg version="1.1" id="Layer_1" xmlns="http://www.w3.org/2000/svg" xmlns:xlink="http://www.w3.org/1999/xlink" x="0px" y="0px" width="64px" height="64px" viewBox="0 0 512 512" enable-background="new 0 0 512 512" xml:space="preserve">
<g>
<path d="M508.645,220.599l-55.86-49.42c-0.066-0.057-0.123-0.104-0.189-0.161L266.075,5.998c-3.771-3.326-9.429-3.326-13.189,0
		L66.273,171.122l-55.919,49.477c-4.112,3.638-4.5,9.929-0.853,14.041c3.638,4.122,9.93,4.5,14.042,0.863l39.472-34.924v297.969
		c0,2.646,1.051,5.173,2.918,7.039c1.866,1.867,4.396,2.909,7.03,2.909c0.009,0,0.009,0,0.009,0l130.514-0.076
		c5.496,0,9.948-4.453,9.948-9.948V349.918h92.132v148.63c0,5.495,4.462,9.948,9.946,9.948h130.522c5.486,0,9.948-4.453,9.948-9.948
		V200.579l39.472,34.924c1.896,1.677,4.244,2.501,6.595,2.492c2.748,0,5.485-1.127,7.447-3.354
		C513.146,230.528,512.757,224.237,508.645,220.599z" id="id_101" style="fill: rgb(255, 255, 255);"></path>
</g>
</svg>