<?xml version="1.0" encoding="utf-8"?>
<!-- Generator: Adobe Illustrator 26.3.1, SVG Export Plug-In . SVG Version: 6.00 Build 0)  -->
<svg version="1.1" id="Capa_1" xmlns="http://www.w3.org/2000/svg" xmlns:xlink="http://www.w3.org/1999/xlink" x="0px" y="0px"
	 viewBox="0 0 585 486.6" style="enable-background:new 0 0 585 486.6;" xml:space="preserve">
<style type="text/css">
	.st0{fill:#FFFFFF;}
</style>
<g>
	<g id="Icons_19_">
		<path class="st0" d="M573.6,218L329.2,12.7c-20.2-16.9-53.1-16.9-73.3,0L11.4,218c-15.2,12.8-15.2,33.6,0,46.5
			c15.2,12.8,40,12.8,55.4,0l33.1-27.8v214.9c0,19.3,18.7,35,41.7,35h89.1V389c0-7.6,7.3-13.7,16.3-13.7h91c9,0,16.3,6.2,16.3,13.7
			v97.6h89.1c23,0,41.7-15.7,41.7-35V236.7l33.1,27.8c7.6,6.4,17.6,9.6,27.6,9.6s20-3.2,27.6-9.6C588.9,251.7,588.9,230.9,573.6,218
			z"/>
	</g>
</g>
</svg>
