<?xml version="1.0" encoding="utf-8"?>
<!-- Generator: Adobe Illustrator 27.5.0, SVG Export Plug-In . SVG Version: 6.00 Build 0)  -->
<svg version="1.1" id="Layer_1" xmlns="http://www.w3.org/2000/svg" xmlns:xlink="http://www.w3.org/1999/xlink" x="0px" y="0px"
	 viewBox="0 0 700 700" style="enable-background:new 0 0 700 700;" xml:space="preserve">
<style type="text/css">
	.st0{fill:#FFFFFF;}
</style>
<path class="st0" d="M131,324.5c6.6,0,12.9-2.1,18.2-6l16.4-12.2v270.4c0,6,2.4,11.8,6.6,16c4.2,4.2,10,6.6,16,6.6h323.2
	c6,0,11.8-2.4,16-6.6c4.2-4.2,6.6-10,6.6-16V306.3l16.4,12.2c8.7,6.5,20.2,7.9,30.2,3.6s16.9-13.5,18.2-24.3s-3.3-21.4-12-27.9
	l-37-27.7l-30.5-22.9l-149-111.8c-5.8-4.4-12.9-6.7-20.2-6.6h-0.6c-7.3-0.1-14.4,2.2-20.2,6.6l-149,111.8l-30.5,22.9l-37,27.7l0,0
	c-7.1,5.3-11.5,13.4-12.1,22.2c-0.6,8.8,2.6,17.4,8.8,23.6C115.1,321.3,122.9,324.5,131,324.5L131,324.5z"/>
</svg>
