<svg version="1.1" fill="current" stroke="current" id="lni_lni-spinner-arrow"
	 x="0px" y="0px" viewBox="0 0 64 64" style="enable-background:new 0 0 64 64;" xml:space="preserve">
	<path d="M59.3,25.8c-0.3-0.9-1.3-1.4-2.2-1.1c-0.9,0.3-1.4,1.3-1.1,2.2c0.8,2.4,1.1,4.9,1.1,7.5c0,3.8-0.8,7.5-2.5,10.9
		C50.4,53.9,41.7,59.3,32,59.3c-13.9,0-25.1-11.2-25.1-24.9C6.9,20.6,18.1,9.4,32,9.4c3.5,0,6.9,0.7,10.1,2.1h-6.2
		c-1,0-1.8,0.8-1.8,1.8S35,15,35.9,15h10.3c1,0,1.8-0.8,1.8-1.8V3c0-1-0.8-1.8-1.8-1.8S44.5,2,44.5,3v5.7C40.6,6.8,36.4,5.9,32,5.9
		C16.2,5.9,3.4,18.6,3.4,34.3S16.2,62.8,32,62.8c10.9,0,21-6.3,25.8-16c1.9-3.9,2.9-8.1,2.9-12.4C60.6,31.4,60.2,28.5,59.3,25.8z"/>
</svg> 
