<?xml version="1.0" encoding="iso-8859-1"?>
<!-- Generator: Adobe Illustrator 19.0.0, SVG Export Plug-In . SVG Version: 6.00 Build 0)  -->
<svg version="1.1" id="Capa_1" xmlns="http://www.w3.org/2000/svg" xmlns:xlink="http://www.w3.org/1999/xlink" x="0px" y="0px"
	 viewBox="0 0 613.148 613.148" style="enable-background:new 0 0 613.148 613.148;" xml:space="preserve">
<g>
	<path d="M473.488,273.028l-10.066-21.85l0.002-0.001l10.066,21.85L473.488,273.028z M172.431,289.807
		c-6.896-3.177-15.059-0.161-18.237,6.735l-67.098,145.67c-3.176,6.896-0.161,15.061,6.736,18.237
		c1.862,0.86,3.818,1.264,5.743,1.264c5.2,0,10.176-2.966,12.494-7.999l67.099-145.67
		C182.341,301.148,179.329,292.983,172.431,289.807z M585.166,442.904l-2.602,1.197l0.718,1.562
		c5.377,11.671,5.885,24.739,1.433,36.795c-4.452,12.055-13.333,21.655-25.006,27.032l-117.577,54.159
		c-6.368,2.933-13.134,4.421-20.105,4.421c-0.002,0-0.002,0-0.002,0c-18.727-0.002-35.888-10.989-43.722-27.995l-71.92-156.147
		l-71.539,155.314c-7.834,17.005-24.997,27.992-43.724,27.992c-6.973,0-13.739-1.487-20.107-4.421L53.439,508.655
		c-11.673-5.377-20.555-14.975-25.007-27.032s-3.943-25.122,1.433-36.797l0.718-1.56l-2.6-1.197
		C3.886,430.97-6.688,402.336,4.41,378.238l55.352-120.176c5.375-11.675,14.975-20.555,27.034-25.007
		c12.056-4.454,25.122-3.943,36.797,1.433l2.603,1.199l4.313-9.364l10.97-23.832c11.408-24.761,40.834-35.625,65.588-24.22
		c0.247,0.113,0.49,0.228,0.735,0.346c17.419-10.051,38.599-11.152,57.307-2.533c16.289,7.501,28.274,21.28,33.51,37.993
		c3.122,0.565,6.207,1.399,9.238,2.446c2.199-0.653,4.421-1.204,6.665-1.61c5.236-16.714,17.223-30.492,33.508-37.993
		c18.713-8.619,39.888-7.516,57.31,2.535c0.244-0.117,0.488-0.232,0.733-0.346c11.992-5.526,25.418-6.05,37.809-1.475
		c12.386,4.575,22.251,13.699,27.777,25.694l10.976,23.825c0,0.003,0.002,0.005,0.003,0.007l4.31,9.359l2.6-1.197
		c11.675-5.377,24.744-5.884,36.799-1.433c12.058,4.452,21.659,13.333,27.035,25.007l55.355,120.178
		C619.836,403.17,609.261,431.805,585.166,442.904z M364.942,244.198c-4.33,6.238-12.899,7.783-19.132,3.455
		c-1.146-0.796-2.342-1.493-3.561-2.139c1.468,2.687,2.749,5.498,3.828,8.424c2.311,6.262,3.578,12.735,3.839,19.216l101.996-46.982
		l-5.224-11.339c-2.453-5.325-6.832-9.376-12.329-11.406c-5.5-2.031-11.459-1.797-16.781,0.654c-1.452,0.67-2.816,1.487-4.059,2.429
		c-2.386,1.915-5.401,3.026-8.605,3.026c-3.273,0-6.344-1.158-8.753-3.145c-10.443-8.374-24.464-10.099-36.625-4.497
		c-6.85,3.153-12.343,8.292-15.9,14.618c6.291,1.864,12.329,4.724,17.85,8.556C367.724,229.397,369.273,237.963,364.942,244.198z
		 M42.086,418.294l72.611-157.635l-2.603-1.199c-10.325-4.755-22.598-0.225-27.356,10.102L29.383,389.74
		c-4.758,10.327-0.226,22.599,10.101,27.356L42.086,418.294z M304.762,321.721l-13.713-6.317l-0.904,0.418l-0.488-1.059
		l-11.649-5.365l-7.561-3.484l-120.716-55.602h-0.002l-5.031,10.923v12.031h-0.002v-12.027l-5.031,10.923L67.059,429.796
		l-3.177,6.896l-8.326,18.077l-0.72,1.562c-2.304,5.002-2.523,10.602-0.615,15.77c1.908,5.166,5.716,9.28,10.717,11.585
		l117.577,54.157c2.737,1.259,5.633,1.899,8.605,1.899c8.033,0,15.393-4.712,18.752-12.002l81.374-176.669l7.567-16.429l4.486-9.743
		L304.762,321.721z M320.671,286.625c2.506-7.525,2.404-15.613-0.385-23.161c-2.55-6.906-7.114-12.68-13.071-16.75
		c-1.627-1.11-3.335-2.121-5.162-2.961c-3.133-1.442-6.427-2.373-9.767-2.838c-6.793-0.947-13.775,0.105-20.023,3.074
		c-1.701,0.808-3.352,1.74-4.925,2.832c-6.238,4.327-14.802,2.784-19.132-3.453c-4.328-6.236-2.782-14.802,3.455-19.131
		c5.521-3.832,11.558-6.692,17.85-8.556c-3.557-6.327-9.051-11.464-15.9-14.619c-12.163-5.6-26.176-3.876-36.622,4.493
		c-0.792,0.654-1.667,1.225-2.607,1.696c-4.928,2.463-10.692,1.704-14.78-1.589c-1.24-0.94-2.597-1.749-4.035-2.411
		c-10.988-5.065-24.05-0.24-29.115,10.75l-5.222,11.341l102.079,47.019l13.682,6.301l14.921,6.872l15.566,7.17L320.671,286.625z
		 M558.31,457.168l-0.72-1.565l-0.001-0.001l-0.001,0.001l-3.05-6.627l-81.057-175.979l-10.065-21.851l-0.003,0.002l-121.689,56.053
		l-6.236,13.537l-13.972,30.333l81.761,177.504c3.357,7.291,10.717,12.003,18.749,12.003c0.002,0,0.002,0,0.002,0
		c2.973,0,5.866-0.639,8.604-1.899l117.576-54.159c5.002-2.304,8.809-6.418,10.716-11.585
		C560.833,467.766,560.614,462.169,558.31,457.168z M583.765,390.575l-55.356-120.178c-4.758-10.327-17.032-14.855-27.356-10.102
		l-2.602,1.197L571.06,419.13l2.605-1.199C583.991,413.176,588.521,400.904,583.765,390.575z M415.173,317.545
		c-3.179-6.896-11.341-9.912-18.237-6.735c-6.898,3.176-9.912,11.341-6.736,18.237l67.099,145.67
		c2.319,5.033,7.295,7.999,12.494,7.999c1.925,0,3.88-0.406,5.743-1.264c6.898-3.176,9.912-11.341,6.736-18.237L415.173,317.545z
		 M458.953,297.378c-3.177-6.896-11.344-9.912-18.237-6.735c-6.898,3.176-9.912,11.341-6.736,18.237l67.099,145.67
		c2.319,5.033,7.295,7.999,12.496,7.999c1.925,0,3.88-0.406,5.743-1.264c6.898-3.176,9.91-11.341,6.736-18.237L458.953,297.378z
		 M371.391,337.708c-3.179-6.896-11.343-9.912-18.237-6.735c-6.898,3.176-9.912,11.341-6.736,18.237l67.099,145.67
		c2.319,5.033,7.295,7.999,12.494,7.999c1.925,0,3.88-0.406,5.743-1.264c6.898-3.176,9.912-11.341,6.736-18.237L371.391,337.708z
		 M216.21,309.976c-6.896-3.177-15.059-0.161-18.237,6.735l-67.097,145.672c-3.176,6.896-0.161,15.061,6.736,18.237
		c1.862,0.858,3.818,1.264,5.743,1.264c5.2,0,10.176-2.966,12.494-7.999l67.097-145.67
		C226.122,321.317,223.107,313.151,216.21,309.976z M259.992,330.14c-6.894-3.179-15.061-0.161-18.237,6.735l-67.097,145.67
		c-3.176,6.896-0.161,15.061,6.736,18.237c1.862,0.86,3.818,1.264,5.743,1.264c5.2,0,10.176-2.966,12.494-7.999l67.097-145.67
		C269.904,341.482,266.889,333.315,259.992,330.14z M307.02,162.826c7.591,0,13.747-6.156,13.747-13.747V58.824
		c0-7.593-6.156-13.747-13.747-13.747s-13.747,6.154-13.747,13.747v90.255C293.273,156.672,299.428,162.826,307.02,162.826z
		 M359.265,149.861c1.913,0.914,3.931,1.349,5.92,1.349c5.128,0,10.053-2.883,12.411-7.819l24.795-51.846
		c3.275-6.849,0.38-15.058-6.471-18.333c-6.848-3.275-15.058-0.38-18.331,6.471l-24.795,51.846
		C349.52,138.377,352.415,146.586,359.265,149.861z M233.578,143.39c2.361,4.937,7.281,7.819,12.411,7.819
		c1.988,0,4.008-0.435,5.921-1.349c6.848-3.275,9.745-11.484,6.469-18.331l-24.797-51.846c-3.275-6.85-11.477-9.745-18.333-6.47
		c-6.848,3.275-9.745,11.484-6.47,18.331L233.578,143.39z"/>
</g>
<g>
</g>
<g>
</g>
<g>
</g>
<g>
</g>
<g>
</g>
<g>
</g>
<g>
</g>
<g>
</g>
<g>
</g>
<g>
</g>
<g>
</g>
<g>
</g>
<g>
</g>
<g>
</g>
<g>
</g>
</svg>
